<mxfile host="65bd71144e">
    <diagram id="ZVRy4JHcZD1sNzcYpOTd" name="Page-1">
        <mxGraphModel dx="1110" dy="656" grid="1" gridSize="10" guides="1" tooltips="1" connect="1" arrows="1" fold="1" page="1" pageScale="1" pageWidth="850" pageHeight="1100" math="1" shadow="0">
            <root>
                <mxCell id="0"/>
                <mxCell id="1" parent="0"/>
                <mxCell id="2" value="$$[\![ Q ]\!](\mathbf{D}, \ \overrightarrow{b})$$&lt;br&gt;" style="text;html=1;strokeColor=none;fillColor=none;align=center;verticalAlign=middle;whiteSpace=wrap;rounded=0;fontSize=21;" vertex="1" parent="1">
                    <mxGeometry x="35" y="400" width="130" height="50" as="geometry"/>
                </mxCell>
                <mxCell id="3" value="Query is evaluated against a database, and a set of bound variables" style="text;html=1;strokeColor=none;fillColor=none;align=center;verticalAlign=middle;whiteSpace=wrap;rounded=0;fontSize=8;fontStyle=2" vertex="1" parent="1">
                    <mxGeometry x="170" y="410" width="95" height="30" as="geometry"/>
                </mxCell>
                <mxCell id="4" style="edgeStyle=none;html=1;exitX=0.5;exitY=0;exitDx=0;exitDy=0;fontSize=21;" edge="1" parent="1" source="5">
                    <mxGeometry relative="1" as="geometry">
                        <mxPoint x="139.92857142857156" y="445" as="targetPoint"/>
                    </mxGeometry>
                </mxCell>
                <mxCell id="5" value="Bound&lt;br&gt;Variables" style="text;html=1;strokeColor=none;fillColor=none;align=center;verticalAlign=top;whiteSpace=wrap;rounded=0;fontSize=8;fontStyle=2" vertex="1" parent="1">
                    <mxGeometry x="117.5" y="475" width="45" height="30" as="geometry"/>
                </mxCell>
                <mxCell id="6" style="edgeStyle=none;html=1;exitX=0.5;exitY=0;exitDx=0;exitDy=0;fontSize=21;" edge="1" parent="1" source="7">
                    <mxGeometry relative="1" as="geometry">
                        <mxPoint x="102.66666666666652" y="445" as="targetPoint"/>
                    </mxGeometry>
                </mxCell>
                <mxCell id="7" value="Database" style="text;html=1;strokeColor=none;fillColor=none;align=center;verticalAlign=top;whiteSpace=wrap;rounded=0;fontSize=8;fontStyle=2" vertex="1" parent="1">
                    <mxGeometry x="80" y="475" width="45" height="30" as="geometry"/>
                </mxCell>
                <mxCell id="8" style="edgeStyle=none;html=1;exitX=0.5;exitY=0;exitDx=0;exitDy=0;fontSize=21;" edge="1" parent="1" source="9">
                    <mxGeometry relative="1" as="geometry">
                        <mxPoint x="62.42857142857156" y="445" as="targetPoint"/>
                    </mxGeometry>
                </mxCell>
                <mxCell id="9" value="Query" style="text;html=1;strokeColor=none;fillColor=none;align=center;verticalAlign=top;whiteSpace=wrap;rounded=0;fontSize=8;fontStyle=2" vertex="1" parent="1">
                    <mxGeometry x="40" y="475" width="45" height="30" as="geometry"/>
                </mxCell>
                <mxCell id="10" value="AGCA Evaluation Function" style="text;html=1;strokeColor=none;fillColor=none;align=center;verticalAlign=middle;whiteSpace=wrap;rounded=0;fontSize=12;fontStyle=1" vertex="1" parent="1">
                    <mxGeometry x="40" y="500" width="230" height="30" as="geometry"/>
                </mxCell>
                <mxCell id="11" value="Generalised Multiset Relations" style="text;html=1;strokeColor=none;fillColor=none;align=center;verticalAlign=middle;whiteSpace=wrap;rounded=0;fontSize=12;fontStyle=1" vertex="1" parent="1">
                    <mxGeometry x="275" y="500" width="312.5" height="30" as="geometry"/>
                </mxCell>
                <mxCell id="12" style="edgeStyle=none;html=1;exitX=1;exitY=0.5;exitDx=0;exitDy=0;entryX=0;entryY=0.5;entryDx=0;entryDy=0;fontSize=12;" edge="1" parent="1" source="13" target="18">
                    <mxGeometry relative="1" as="geometry"/>
                </mxCell>
                <mxCell id="13" value="$$\langle \ \overrightarrow{t_1} \ \rangle$$" style="text;html=1;strokeColor=none;fillColor=none;align=center;verticalAlign=middle;whiteSpace=wrap;rounded=0;fontSize=12;" vertex="1" parent="1">
                    <mxGeometry x="400" y="400" width="50" height="30" as="geometry"/>
                </mxCell>
                <mxCell id="14" style="edgeStyle=none;html=1;exitX=1;exitY=0.5;exitDx=0;exitDy=0;entryX=0;entryY=0.5;entryDx=0;entryDy=0;fontSize=12;" edge="1" parent="1" source="15" target="21">
                    <mxGeometry relative="1" as="geometry"/>
                </mxCell>
                <mxCell id="15" value="$$\langle \ \overrightarrow{t_2} \ \rangle$$" style="text;html=1;strokeColor=none;fillColor=none;align=center;verticalAlign=middle;whiteSpace=wrap;rounded=0;fontSize=12;" vertex="1" parent="1">
                    <mxGeometry x="400" y="430" width="50" height="30" as="geometry"/>
                </mxCell>
                <mxCell id="16" style="edgeStyle=none;html=1;exitX=1;exitY=0.5;exitDx=0;exitDy=0;entryX=0;entryY=0.5;entryDx=0;entryDy=0;fontSize=12;" edge="1" parent="1" source="17" target="24">
                    <mxGeometry relative="1" as="geometry"/>
                </mxCell>
                <mxCell id="17" value="$$\vdots$$" style="text;html=1;strokeColor=none;fillColor=none;align=center;verticalAlign=middle;whiteSpace=wrap;rounded=0;fontSize=12;" vertex="1" parent="1">
                    <mxGeometry x="400" y="460" width="50" height="30" as="geometry"/>
                </mxCell>
                <mxCell id="18" value="$$0$$" style="text;html=1;strokeColor=none;fillColor=none;align=center;verticalAlign=middle;whiteSpace=wrap;rounded=0;fontSize=12;" vertex="1" parent="1">
                    <mxGeometry x="475" y="400" width="50" height="30" as="geometry"/>
                </mxCell>
                <mxCell id="19" value="$$3$$" style="text;html=1;strokeColor=none;fillColor=none;align=center;verticalAlign=middle;whiteSpace=wrap;rounded=0;fontSize=12;" vertex="1" parent="1">
                    <mxGeometry x="515" y="400" width="50" height="30" as="geometry"/>
                </mxCell>
                <mxCell id="20" value="$$1$$" style="text;html=1;strokeColor=none;fillColor=none;align=center;verticalAlign=middle;whiteSpace=wrap;rounded=0;fontSize=12;" vertex="1" parent="1">
                    <mxGeometry x="555" y="400" width="50" height="30" as="geometry"/>
                </mxCell>
                <mxCell id="21" value="$$2$$" style="text;html=1;strokeColor=none;fillColor=none;align=center;verticalAlign=middle;whiteSpace=wrap;rounded=0;fontSize=12;" vertex="1" parent="1">
                    <mxGeometry x="475" y="430" width="50" height="30" as="geometry"/>
                </mxCell>
                <mxCell id="22" value="$$1$$" style="text;html=1;strokeColor=none;fillColor=none;align=center;verticalAlign=middle;whiteSpace=wrap;rounded=0;fontSize=12;" vertex="1" parent="1">
                    <mxGeometry x="515" y="430" width="50" height="30" as="geometry"/>
                </mxCell>
                <mxCell id="23" value="$$1$$" style="text;html=1;strokeColor=none;fillColor=none;align=center;verticalAlign=middle;whiteSpace=wrap;rounded=0;fontSize=12;" vertex="1" parent="1">
                    <mxGeometry x="555" y="430" width="50" height="30" as="geometry"/>
                </mxCell>
                <mxCell id="24" value="$$\vdots$$" style="text;html=1;strokeColor=none;fillColor=none;align=center;verticalAlign=middle;whiteSpace=wrap;rounded=0;fontSize=12;" vertex="1" parent="1">
                    <mxGeometry x="475" y="460" width="50" height="30" as="geometry"/>
                </mxCell>
                <mxCell id="25" value="$$\vdots$$" style="text;html=1;strokeColor=none;fillColor=none;align=center;verticalAlign=middle;whiteSpace=wrap;rounded=0;fontSize=12;" vertex="1" parent="1">
                    <mxGeometry x="515" y="460" width="50" height="30" as="geometry"/>
                </mxCell>
                <mxCell id="26" value="$$\vdots$$" style="text;html=1;strokeColor=none;fillColor=none;align=center;verticalAlign=middle;whiteSpace=wrap;rounded=0;fontSize=12;" vertex="1" parent="1">
                    <mxGeometry x="555" y="460" width="50" height="30" as="geometry"/>
                </mxCell>
                <mxCell id="27" value="Effectively a function mapping tuples to their multiplicities in relations." style="text;html=1;strokeColor=none;fillColor=none;align=center;verticalAlign=middle;whiteSpace=wrap;rounded=0;fontSize=8;fontStyle=2" vertex="1" parent="1">
                    <mxGeometry x="280" y="460" width="120" height="30" as="geometry"/>
                </mxCell>
                <mxCell id="28" value="By manipulating the multiplicities we can add and delete tuples, as well as map the GMR results of an operator to the next (e.g multiply by -1 and sum to old to delete)&amp;nbsp;" style="text;html=1;strokeColor=none;fillColor=none;align=center;verticalAlign=middle;whiteSpace=wrap;rounded=0;fontSize=8;fontStyle=2" vertex="1" parent="1">
                    <mxGeometry x="280" y="390" width="120" height="60" as="geometry"/>
                </mxCell>
                <mxCell id="29" value="$$\mathbf{A}$$" style="text;html=1;strokeColor=none;fillColor=none;align=center;verticalAlign=middle;whiteSpace=wrap;rounded=0;fontSize=12;" vertex="1" parent="1">
                    <mxGeometry x="480" y="375" width="40" height="30" as="geometry"/>
                </mxCell>
                <mxCell id="30" value="$$\mathbf{B}$$" style="text;html=1;strokeColor=none;fillColor=none;align=center;verticalAlign=middle;whiteSpace=wrap;rounded=0;fontSize=12;" vertex="1" parent="1">
                    <mxGeometry x="520" y="375" width="40" height="30" as="geometry"/>
                </mxCell>
                <mxCell id="31" value="$$\mathbf{C}$$" style="text;html=1;strokeColor=none;fillColor=none;align=center;verticalAlign=middle;whiteSpace=wrap;rounded=0;fontSize=12;" vertex="1" parent="1">
                    <mxGeometry x="560" y="375" width="40" height="30" as="geometry"/>
                </mxCell>
            </root>
        </mxGraphModel>
    </diagram>
</mxfile>